# xmcd CD database file
#
# Track frame offsets:
#	150
#	22125
#	45110
#	65997
#	95290
#	119670
#	148322
#	163830
#
# Disc length: 2513 seconds
#
# Revision: 0
# Processed by: cddbd v1.5.1PL2 Copyright (c) Steve Scherf et al.
# Submitted via: CDex 1.51
#
DISCID=7609cf08
DTITLE=Nathan Davis - If
DYEAR=1976
DGENRE=Jazz
TTITLE0=Stick Buddy
TTITLE1=If
TTITLE2=Bahia
TTITLE3=African Boogie
TTITLE4=Tragic Magic
TTITLE5=A Thought for Cannon (Dedicated to Julian Cannonball Adderley)
TTITLE6=New Orleans
TTITLE7=Mr. Five By Five
EXTD=YEAR: 1976
EXTT0=
EXTT1=
EXTT2=
EXTT3=
EXTT4=
EXTT5=
EXTT6=
EXTT7=
PLAYORDER=
